<mxfile host="app.diagrams.net" modified="2022-09-20T07:17:22.889Z" agent="5.0 (Windows NT 10.0; Win64; x64) AppleWebKit/537.36 (KHTML, like Gecko) Chrome/105.0.0.0 Safari/537.36" etag="LAzZ3341-8b9w-O5Dajg" version="20.3.0" type="github">
  <diagram id="C5RBs43oDa-KdzZeNtuy" name="Page-1">
    <mxGraphModel dx="677" dy="363" grid="1" gridSize="10" guides="1" tooltips="1" connect="1" arrows="1" fold="1" page="1" pageScale="1" pageWidth="827" pageHeight="1169" math="0" shadow="0">
      <root>
        <mxCell id="WIyWlLk6GJQsqaUBKTNV-0" />
        <mxCell id="WIyWlLk6GJQsqaUBKTNV-1" parent="WIyWlLk6GJQsqaUBKTNV-0" />
        <mxCell id="w46rc9Ggta0nKSejpY7C-8" style="edgeStyle=orthogonalEdgeStyle;rounded=1;orthogonalLoop=1;jettySize=auto;html=1;exitX=1;exitY=0.5;exitDx=0;exitDy=0;shadow=0;sketch=0;shape=flexArrow;strokeWidth=1;startWidth=10;endWidth=15;width=5;endSize=4;startSize=6;" parent="WIyWlLk6GJQsqaUBKTNV-1" source="w46rc9Ggta0nKSejpY7C-0" target="w46rc9Ggta0nKSejpY7C-7" edge="1">
          <mxGeometry relative="1" as="geometry" />
        </mxCell>
        <mxCell id="w46rc9Ggta0nKSejpY7C-0" value="Find Player Scene opened" style="ellipse;whiteSpace=wrap;html=1;aspect=fixed;fillColor=#d5e8d4;strokeColor=#82b366;" parent="WIyWlLk6GJQsqaUBKTNV-1" vertex="1">
          <mxGeometry x="40" y="60" width="80" height="80" as="geometry" />
        </mxCell>
        <mxCell id="S2SnmM51cMWzsnY1vYaA-1" style="edgeStyle=orthogonalEdgeStyle;rounded=1;orthogonalLoop=1;jettySize=auto;html=1;exitX=1;exitY=0.5;exitDx=0;exitDy=0;entryX=0;entryY=0.5;entryDx=0;entryDy=0;shape=flexArrow;shadow=0;sketch=0;strokeWidth=1;endSize=4;startSize=6;endWidth=15;width=5;" parent="WIyWlLk6GJQsqaUBKTNV-1" source="w46rc9Ggta0nKSejpY7C-7" target="S2SnmM51cMWzsnY1vYaA-0" edge="1">
          <mxGeometry relative="1" as="geometry" />
        </mxCell>
        <mxCell id="w46rc9Ggta0nKSejpY7C-7" value="Searches for player online" style="rounded=1;whiteSpace=wrap;html=1;fillColor=#dae8fc;strokeColor=#6c8ebf;" parent="WIyWlLk6GJQsqaUBKTNV-1" vertex="1">
          <mxGeometry x="160" y="80" width="120" height="40" as="geometry" />
        </mxCell>
        <mxCell id="S2SnmM51cMWzsnY1vYaA-4" value="No" style="edgeStyle=orthogonalEdgeStyle;rounded=1;orthogonalLoop=1;jettySize=auto;html=1;exitX=1;exitY=0.5;exitDx=0;exitDy=0;entryX=0;entryY=0.5;entryDx=0;entryDy=0;shape=flexArrow;shadow=0;sketch=0;strokeWidth=1;endSize=4;startSize=6;width=5;endWidth=10;" parent="WIyWlLk6GJQsqaUBKTNV-1" source="S2SnmM51cMWzsnY1vYaA-0" target="S2SnmM51cMWzsnY1vYaA-3" edge="1">
          <mxGeometry relative="1" as="geometry" />
        </mxCell>
        <mxCell id="S2SnmM51cMWzsnY1vYaA-7" value="Yes" style="edgeStyle=orthogonalEdgeStyle;rounded=1;orthogonalLoop=1;jettySize=auto;html=1;exitX=0.5;exitY=1;exitDx=0;exitDy=0;shape=flexArrow;width=5;endWidth=15;shadow=0;sketch=0;strokeWidth=1;endSize=4;startSize=6;" parent="WIyWlLk6GJQsqaUBKTNV-1" source="S2SnmM51cMWzsnY1vYaA-0" target="S2SnmM51cMWzsnY1vYaA-6" edge="1">
          <mxGeometry relative="1" as="geometry" />
        </mxCell>
        <mxCell id="S2SnmM51cMWzsnY1vYaA-0" value="&lt;span style=&quot;font-size: 10px&quot;&gt;Cancel Button pressed?&lt;/span&gt;" style="rhombus;whiteSpace=wrap;html=1;shadow=0;fontFamily=Helvetica;fontSize=12;align=center;strokeWidth=1;spacing=6;spacingTop=-4;fillColor=#fff2cc;strokeColor=#d6b656;" parent="WIyWlLk6GJQsqaUBKTNV-1" vertex="1">
          <mxGeometry x="323.5" y="60" width="90" height="80" as="geometry" />
        </mxCell>
        <mxCell id="S2SnmM51cMWzsnY1vYaA-5" value="No" style="edgeStyle=orthogonalEdgeStyle;rounded=1;orthogonalLoop=1;jettySize=auto;html=1;exitX=0.5;exitY=0;exitDx=0;exitDy=0;entryX=0.5;entryY=0;entryDx=0;entryDy=0;shadow=0;sketch=0;strokeWidth=1;shape=flexArrow;endSize=4;startSize=6;width=5;endWidth=15;" parent="WIyWlLk6GJQsqaUBKTNV-1" source="S2SnmM51cMWzsnY1vYaA-3" target="w46rc9Ggta0nKSejpY7C-7" edge="1">
          <mxGeometry relative="1" as="geometry">
            <Array as="points">
              <mxPoint x="495" y="30" />
              <mxPoint x="220" y="30" />
            </Array>
          </mxGeometry>
        </mxCell>
        <mxCell id="S2SnmM51cMWzsnY1vYaA-9" value="Yes" style="edgeStyle=orthogonalEdgeStyle;rounded=1;orthogonalLoop=1;jettySize=auto;html=1;exitX=0.5;exitY=1;exitDx=0;exitDy=0;shape=flexArrow;shadow=0;sketch=0;strokeWidth=1;endSize=4;startSize=6;width=5;endWidth=15;" parent="WIyWlLk6GJQsqaUBKTNV-1" source="S2SnmM51cMWzsnY1vYaA-3" target="S2SnmM51cMWzsnY1vYaA-8" edge="1">
          <mxGeometry relative="1" as="geometry" />
        </mxCell>
        <mxCell id="S2SnmM51cMWzsnY1vYaA-3" value="&lt;span style=&quot;font-size: 10px&quot;&gt;Player found?&lt;/span&gt;" style="rhombus;whiteSpace=wrap;html=1;shadow=0;fontFamily=Helvetica;fontSize=12;align=center;strokeWidth=1;spacing=6;spacingTop=-4;fillColor=#fff2cc;strokeColor=#d6b656;" parent="WIyWlLk6GJQsqaUBKTNV-1" vertex="1">
          <mxGeometry x="450" y="60" width="90" height="80" as="geometry" />
        </mxCell>
        <mxCell id="S2SnmM51cMWzsnY1vYaA-6" value="Home Scene opens" style="ellipse;whiteSpace=wrap;html=1;aspect=fixed;fillColor=#f8cecc;strokeColor=#b85450;" parent="WIyWlLk6GJQsqaUBKTNV-1" vertex="1">
          <mxGeometry x="328.5" y="180" width="80" height="80" as="geometry" />
        </mxCell>
        <mxCell id="S2SnmM51cMWzsnY1vYaA-8" value="Gameplay Scene opens" style="ellipse;whiteSpace=wrap;html=1;aspect=fixed;fillColor=#f8cecc;strokeColor=#b85450;" parent="WIyWlLk6GJQsqaUBKTNV-1" vertex="1">
          <mxGeometry x="455" y="180" width="80" height="80" as="geometry" />
        </mxCell>
      </root>
    </mxGraphModel>
  </diagram>
</mxfile>
